<svg xmlns="http://www.w3.org/2000/svg" xmlns:xlink="http://www.w3.org/1999/xlink" viewBox="0 0 45.67 45.7"><defs><style>.cls-1{fill:url(#Gradiente_sem_nome_18);}.cls-2{fill:url(#Gradiente_sem_nome_5);}.cls-3{fill:#00a7dd;}.cls-4{fill:#4499d1;}.cls-5{fill:url(#Gradiente_sem_nome_5-2);}.cls-6{fill:url(#Gradiente_sem_nome_5-3);}</style><linearGradient id="Gradiente_sem_nome_18" x1="11.47" y1="28.73" x2="27.71" y2="7.91" gradientUnits="userSpaceOnUse"><stop offset="0" stop-color="#00a6dd"/><stop offset="0.2" stop-color="#08a4dc"/><stop offset="0.51" stop-color="#1da0d8"/><stop offset="0.89" stop-color="#4099d1"/><stop offset="1" stop-color="#4b97cf"/></linearGradient><linearGradient id="Gradiente_sem_nome_5" x1="20.97" y1="37.63" x2="32.94" y2="12.19" gradientUnits="userSpaceOnUse"><stop offset="0" stop-color="#00a6dd"/><stop offset="0.06" stop-color="#06a5dc"/><stop offset="0.69" stop-color="#389bd3"/><stop offset="1" stop-color="#4b97cf"/></linearGradient><linearGradient id="Gradiente_sem_nome_5-2" x1="-1.19" y1="33" x2="21.99" y2="-3" xlink:href="#Gradiente_sem_nome_5"/><linearGradient id="Gradiente_sem_nome_5-3" x1="26.08" y1="48.49" x2="42.11" y2="8.07" xlink:href="#Gradiente_sem_nome_5"/></defs><g id="Camada_2" data-name="Camada 2"><g id="Logo_azul_sem_fundo_fundo" data-name="Logo azul sem fundo fundo"><path class="cls-1" d="M14.46,34.65a1.85,1.85,0,0,0,.47.08h0a2.66,2.66,0,0,0,.63.09l.7.08h.31a8.66,8.66,0,0,0,1.44,0c.4,0,.78-.08,1.17-.12l.56-.09h.08a1.43,1.43,0,0,0,.37-.08h0a6.09,6.09,0,0,0,1.1-.27,11,11,0,0,0,2.51-1,3.77,3.77,0,0,0,1-.67l.09,0a8.51,8.51,0,0,0,2.74-4.28c.07-.18.15-.36.22-.55L28.54,26c.08-.18.16-.36.22-.54.19-.54.44-1.06.6-1.62h0c.1-.23.2-.47.29-.71L31.26,19a.2.2,0,0,0-.09-.29,7.59,7.59,0,0,0-1.57-.88,7.67,7.67,0,0,0-4.21-.45c-.11,0-.21,0-.26.17-.12.37-.27.73-.4,1.09h0c-.32.86-.65,1.71-1,2.57h0l-1,2.55a10.06,10.06,0,0,1-1,2.21c-.25.37-.58.65-.86,1h0c-.4.27-.78.55-1.2.78l-1,.36a5.7,5.7,0,0,1-2.1.09c-.1-.06-.22,0-.33,0a5.54,5.54,0,0,1-3.48-2.53,5.91,5.91,0,0,1-.7-1.89c0-.19,0-.38-.05-.57A5.79,5.79,0,0,1,12.29,21c.29-.67.52-1.37.78-2.05h0c.37-.9.71-1.8,1-2.71s.66-1.67,1-2.51.69-1.73,1-2.61c0,0,0,0,0,0,.54-1.39,1.07-2.79,1.61-4.18.06-.15,0-.16-.12-.16A14.32,14.32,0,0,0,14.82,7a11.83,11.83,0,0,0-2.59.76h0a11.7,11.7,0,0,0-1.72.8.28.28,0,0,0-.12.14c-.09.27-.2.54-.3.81-.31.82-.63,1.64-.95,2.47L8.09,14.73l-.78,2.05C7,17.5,6.74,18.23,6.47,19c-.35.92-.7,1.83-1.06,2.75A7.18,7.18,0,0,0,4.93,24h0a1.71,1.71,0,0,0,0,.55v.14a2,2,0,0,0,0,.6h0a1.2,1.2,0,0,0,.05.5A1.08,1.08,0,0,0,5,26a8.5,8.5,0,0,0,2.29,4.67,13.77,13.77,0,0,0,5.56,3.53A7.71,7.71,0,0,0,14.46,34.65Z"/><path class="cls-2" d="M33.74,30.07A10.31,10.31,0,0,1,32,31.8h0a9.52,9.52,0,0,1-2.87,1.47l-.91.2a.65.65,0,0,0-.33.19l-.54.61-1.05,1h0c-.4.33-.78.67-1.21,1l-.93.65a.35.35,0,0,0-.11,0,13,13,0,0,1-1.94,1c-.22.1-.14.16,0,.25a1.35,1.35,0,0,0,.65.21l.17,0a14.46,14.46,0,0,0,6.16.28A12.69,12.69,0,0,0,31.78,38a11.14,11.14,0,0,0,2.1-1c.09,0,.14-.05.2-.09a11.8,11.8,0,0,0,2-1.55h0l.07,0a10.71,10.71,0,0,0,1.66-1.84,10.17,10.17,0,0,0,1.42-2.23,4.68,4.68,0,0,0,.35-.71,10.83,10.83,0,0,0,.65-1.89c0-.1.07-.19.09-.28a11.3,11.3,0,0,0,.32-1.83,12.09,12.09,0,0,0,.09-2.33,12.61,12.61,0,0,0-.46-2.92c-.05-.23-.14-.46-.21-.69a10.38,10.38,0,0,0-.85-2.1,14,14,0,0,0-7.78-6.86,12.17,12.17,0,0,0-3.2-.72l-.11,0c-.94-.08-1.88-.06-2.82-.05H18.45a.15.15,0,0,0-.16.11l-.62,1.64a1.86,1.86,0,0,0-.17.41l-.83,2.19-1,2.65h0c-.35.92-.69,1.85-1,2.79-.27.66-.51,1.33-.73,2-.19.49-.37,1-.55,1.46a.43.43,0,0,0,0,.35,4.18,4.18,0,0,0,2.09,2.23A4.07,4.07,0,0,0,18,27a3.12,3.12,0,0,0,.73-.18h0c.57-.17,1.09-.4,1.19-1.09.2-.48.38-1,.55-1.46s.5-1.28.73-1.93h0l.27-.64c.24-.65.48-1.31.73-2,.34-.84.66-1.69,1-2.54a.84.84,0,0,1,.63-.6,12.28,12.28,0,0,1,2.06-.47c.47,0,.93,0,1.4,0a.34.34,0,0,0,.24,0l1.28.2.15,0a8.75,8.75,0,0,1,5,3.5,11.05,11.05,0,0,1,1,1.79,10.47,10.47,0,0,1,.6,2.93A10,10,0,0,1,35,27.61,9.64,9.64,0,0,1,33.74,30.07Z"/><path class="cls-3" d="M17,39.57c.38-.37.8-.71,1.15-1.1a1.39,1.39,0,0,0-.69-2.27,6.62,6.62,0,0,0-1-.09c-.62-.08-1.24-.12-1.85-.25a25.86,25.86,0,0,1-2.59-.66c-.9-.31-1.77-.68-2.64-1.07a1.19,1.19,0,0,0-1.07,0,.51.51,0,0,0-.28.17h0a1.27,1.27,0,0,0-.51,1.19.25.25,0,0,0,0,.17c0,.59.14,1.17.2,1.76s.14,1,.2,1.43.1.86.15,1.28.15,1.07.22,1.6a26.68,26.68,0,0,0,.37,2.81,1.37,1.37,0,0,0,2.25.77c.29-.24.54-.53.82-.79h0c.47-.41.91-.86,1.36-1.3.08,0,.13-.11.19-.16l1.56-1.52.67-.65a.84.84,0,0,0,.28-.25h0C16.26,40.34,16.64,40,17,39.57Z"/><path class="cls-4" d="M25.88,7.23a1.31,1.31,0,0,0-.24,1.49,1.3,1.3,0,0,0,1.22.84,20.86,20.86,0,0,1,3.42.48c.51.12,1,.26,1.53.4,1,.33,1.9.72,2.83,1.13a1.36,1.36,0,0,0,1.83-1l0-.08a.77.77,0,0,0,0-.52h0a6.4,6.4,0,0,0-.1-.88c-.07-.53-.14-1.06-.22-1.58l-.09-.84c-.23-1.82-.46-3.65-.7-5.47A1.33,1.33,0,0,0,34.5.11a1.28,1.28,0,0,0-1.41.23c-.85.79-1.67,1.6-2.5,2.4-.55.49-1.08,1-1.6,1.52L27,6.18C26.61,6.53,26.23,6.86,25.88,7.23Z"/><path class="cls-5" d="M5.7,35.49A20.28,20.28,0,0,1,4.1,33c-.36-.71-.7-1.42-1-2.15a25,25,0,0,1-.89-2.65A26.81,26.81,0,0,1,1.64,25a29.29,29.29,0,0,1-.08-3.38c0-.37.06-.75.11-1.13.08-.59.17-1.18.25-1.78h0c.06-.22.11-.44.16-.66.17-.78.43-1.54.66-2.31s.6-1.48.92-2.2l1-1.84c.53-.77,1-1.54,1.62-2.27l.17-.18c.41-.49.84-1,1.27-1.44.09,0,.14-.11.21-.17a14.78,14.78,0,0,1,1.3-1.2l1.6-1.22s0,0,.06,0c.75-.51,1.53-.94,2.32-1.38h0c.82-.39,1.66-.76,2.51-1.07l.56-.18c.79-.26,1.6-.45,2.4-.64a28,28,0,0,1,3-.37c.6,0,1.2-.06,1.79,0s1.24.09,1.86.12L27.08,2a.7.7,0,0,0,.79-.55.81.81,0,0,0-.69-1,15.32,15.32,0,0,0-1.8-.28c-.53,0-1.07-.08-1.6-.12h0a20.46,20.46,0,0,0-3.5.13l-1,.13a14.35,14.35,0,0,0-1.95.4,17.12,17.12,0,0,0-2.87.92,16.53,16.53,0,0,0-2.42,1.11A17.25,17.25,0,0,0,9.67,4.21a13.85,13.85,0,0,0-1.6,1.23A15,15,0,0,0,6.58,6.82,15.24,15.24,0,0,0,5.12,8.47a16.28,16.28,0,0,0-1.65,2.32,13.7,13.7,0,0,0-1,1.79,16.38,16.38,0,0,0-.95,2.14h0a17.58,17.58,0,0,0-.87,2.84,3.75,3.75,0,0,0-.16.68,17.31,17.31,0,0,0-.34,2.29A10,10,0,0,0,0,21.62H0V24H0v.13a.61.61,0,0,0,0,.33h0v.3a.39.39,0,0,0,0,.24h0a10.14,10.14,0,0,0,.24,1.73,1.33,1.33,0,0,0,0,.2c.14.58.26,1.17.41,1.75a17.33,17.33,0,0,0,.76,2.31.65.65,0,0,0,0,.13,23.34,23.34,0,0,0,3.05,5.45,1.79,1.79,0,0,0,.27.28.77.77,0,0,0,1.06,0,.74.74,0,0,0,0-1C5.9,35.74,5.79,35.62,5.7,35.49Z"/><path class="cls-6" d="M45.46,19.75a12.57,12.57,0,0,0-.35-1.83c-.11-.61-.29-1.2-.46-1.8A13.75,13.75,0,0,0,44,14.26a5.36,5.36,0,0,0-.25-.62A22.79,22.79,0,0,0,40.19,8c-.25-.3-.52-.59-.79-.88a.9.9,0,0,0-.75-.32.74.74,0,0,0-.66.49.73.73,0,0,0,.21.81A19,19,0,0,1,40,10.27c.43.58.8,1.2,1.19,1.8h0c.21.4.43.79.63,1.19a22.92,22.92,0,0,1,1.34,3.29,22.78,22.78,0,0,1,.66,2.83c.07.49.13,1,.2,1.47V21a.63.63,0,0,0,0,.33h0c0,.52,0,1.05,0,1.57s0,1.32-.08,2c0,.05,0,.1,0,.15a17.75,17.75,0,0,1-.26,1.78,26,26,0,0,1-.65,2.6l0,0a19.94,19.94,0,0,1-1.62,3.73,26.77,26.77,0,0,1-1.53,2.38c-.47.6-1,1.17-1.44,1.73s-1.28,1.28-2,1.87h0l-1.69,1.28c-.67.43-1.36.84-2.06,1.24-.88.43-1.77.83-2.68,1.19a29.36,29.36,0,0,1-2.88.81c-.68.11-1.36.25-2,.31l-1.06.11h-.75a25.55,25.55,0,0,1-2.77-.09,23.49,23.49,0,0,1-3-.56.7.7,0,0,0-.86.41.77.77,0,0,0,.27,1,1.15,1.15,0,0,0,.46.19c.33.08.66.16,1,.22a18.13,18.13,0,0,0,2.75.34.81.81,0,0,0,.38,0h.49l.12,0h.05a21.31,21.31,0,0,0,3-.14.33.33,0,0,0,.24,0h.08a17.65,17.65,0,0,0,3-.55,16.61,16.61,0,0,0,2.74-.91,3,3,0,0,0,.55-.2c.72-.29,1.4-.68,2.1-1a17.32,17.32,0,0,0,2-1.27,14.48,14.48,0,0,0,1.76-1.36h0a16.49,16.49,0,0,0,2-1.88,15.32,15.32,0,0,0,1.41-1.7,17.31,17.31,0,0,0,1.62-2.45h0a16.86,16.86,0,0,0,.9-1.74,15.08,15.08,0,0,0,.77-1.92,17.39,17.39,0,0,0,.73-2.43,14.89,14.89,0,0,0,.37-2.1c0-.06,0-.11,0-.17a21.42,21.42,0,0,0,.17-3.58A18.39,18.39,0,0,0,45.46,19.75Z"/></g></g></svg>